<svg xmlns="http://www.w3.org/2000/svg" xmlns:xlink="http://www.w3.org/1999/xlink" width="960" zoomAndPan="magnify" viewBox="0 0 720 719.999996" height="960" preserveAspectRatio="xMidYMid meet" version="1.2"><defs><clipPath id="d3aa3e8b32"><path d="M 85 52 L 635 52 L 635 719.972656 L 85 719.972656 Z M 85 52 "/></clipPath><clipPath id="5f9328185a"><path d="M 85 458 L 635 458 L 635 719.972656 L 85 719.972656 Z M 85 458 "/></clipPath></defs><g id="d62692e4fd"><g clip-rule="nonzero" clip-path="url(#d3aa3e8b32)"><path style=" stroke:none;fill-rule:nonzero;fill:#f1c27d;fill-opacity:1;" d="M 634.851562 719.972656 L 634.851562 686.722656 C 634.851562 582.539062 548.402344 498.304688 444.21875 498.304688 L 426.484375 498.304688 L 426.484375 449.539062 C 475.253906 427.371094 508.503906 378.605469 512.933594 323.1875 C 528.453125 320.972656 541.753906 307.671875 541.753906 289.9375 L 541.753906 256.6875 C 541.753906 238.953125 528.453125 225.652344 512.933594 223.4375 L 512.933594 205.703125 C 512.933594 121.472656 444.21875 52.753906 359.984375 52.753906 C 275.753906 52.753906 207.035156 121.472656 207.035156 205.703125 L 207.035156 223.4375 C 191.519531 225.652344 178.21875 238.953125 178.21875 256.6875 L 178.21875 289.9375 C 178.21875 307.671875 191.519531 320.972656 207.035156 323.1875 C 211.46875 378.605469 244.71875 427.371094 293.484375 449.539062 L 293.484375 498.304688 L 275.753906 498.304688 C 171.570312 498.304688 85.117188 582.539062 85.117188 686.722656 L 85.117188 719.972656 Z M 634.851562 719.972656 "/></g><path style=" stroke:none;fill-rule:nonzero;fill:#000000;fill-opacity:0.2;" d="M 359.984375 489.4375 C 335.601562 489.4375 313.433594 485.003906 293.484375 476.136719 L 293.484375 449.539062 C 313.433594 460.621094 335.601562 465.054688 359.984375 465.054688 C 384.367188 465.054688 406.535156 460.621094 426.484375 449.539062 L 426.484375 476.136719 C 406.535156 485.003906 384.367188 489.4375 359.984375 489.4375 Z M 359.984375 489.4375 "/><path style=" stroke:none;fill-rule:nonzero;fill:#000000;fill-opacity:0.2;" d="M 359.984375 323.1875 C 379.933594 323.1875 395.453125 314.320312 395.453125 303.238281 L 324.519531 303.238281 C 324.519531 314.320312 340.035156 323.1875 359.984375 323.1875 Z M 359.984375 323.1875 "/><g clip-rule="nonzero" clip-path="url(#5f9328185a)"><path style=" stroke:none;fill-rule:nonzero;fill:#545454;fill-opacity:1;" d="M 634.851562 719.972656 L 634.851562 686.722656 C 634.851562 606.921875 581.652344 535.988281 510.71875 509.386719 C 508.503906 480.570312 473.035156 465.054688 424.269531 458.402344 L 424.269531 507.171875 C 424.269531 542.636719 395.453125 571.453125 357.769531 571.453125 C 322.300781 571.453125 293.484375 542.636719 293.484375 507.171875 L 293.484375 458.402344 C 244.71875 465.054688 209.253906 480.570312 207.035156 509.386719 C 136.101562 538.203125 85.117188 606.921875 85.117188 686.722656 L 85.117188 719.972656 Z M 634.851562 719.972656 "/></g><path style=" stroke:none;fill-rule:nonzero;fill:#ffffff;fill-opacity:1;" d="M 277.96875 591.402344 L 277.96875 700.019531 C 277.96875 704.453125 273.535156 708.886719 266.886719 708.886719 C 262.453125 708.886719 258.019531 704.453125 258.019531 700.019531 L 258.019531 580.320312 C 262.453125 584.753906 269.101562 586.972656 277.96875 591.402344 Z M 277.96875 591.402344 "/><path style=" stroke:none;fill-rule:nonzero;fill:#ffffff;fill-opacity:1;" d="M 461.953125 580.320312 L 461.953125 668.988281 C 461.953125 673.421875 457.519531 677.855469 450.867188 677.855469 C 446.433594 677.855469 442.003906 673.421875 442.003906 668.988281 L 442.003906 591.402344 C 448.652344 586.972656 455.300781 584.753906 461.953125 580.320312 Z M 461.953125 580.320312 "/><path style=" stroke:none;fill-rule:nonzero;fill:#000000;fill-opacity:0.4;" d="M 207.035156 509.386719 C 198.167969 513.820312 187.085938 518.253906 176.003906 524.902344 C 198.167969 573.671875 255.800781 598.054688 328.953125 606.921875 C 260.234375 595.835938 207.035156 551.503906 207.035156 513.820312 C 207.035156 511.605469 207.035156 511.605469 207.035156 509.386719 Z M 207.035156 509.386719 "/><path style=" stroke:none;fill-rule:nonzero;fill:#000000;fill-opacity:0.4;" d="M 541.753906 524.902344 C 532.886719 518.253906 521.800781 513.820312 510.71875 509.386719 C 510.71875 509.386719 510.71875 511.605469 510.71875 513.820312 C 510.71875 551.503906 457.519531 595.835938 388.800781 606.921875 C 461.953125 598.054688 519.585938 573.671875 541.753906 524.902344 Z M 541.753906 524.902344 "/><path style=" stroke:none;fill-rule:nonzero;fill:#000000;fill-opacity:0.7;" d="M 235.851562 223.4375 C 246.933594 214.570312 260.234375 212.355469 275.753906 210.136719 C 286.835938 207.921875 302.351562 207.921875 320.085938 212.355469 C 309.003906 199.054688 289.050781 190.1875 271.320312 196.835938 C 255.800781 199.054688 242.503906 207.921875 235.851562 223.4375 Z M 235.851562 223.4375 "/><path style=" stroke:none;fill-rule:nonzero;fill:#000000;fill-opacity:0.7;" d="M 486.335938 223.4375 C 475.253906 214.570312 459.734375 212.355469 446.433594 210.136719 C 435.351562 207.921875 419.835938 207.921875 402.101562 212.355469 C 413.183594 199.054688 433.136719 190.1875 450.867188 196.835938 C 466.386719 199.054688 479.683594 207.921875 486.335938 223.4375 Z M 486.335938 223.4375 "/><path style=" stroke:none;fill-rule:nonzero;fill:#2b2a29;fill-opacity:1;" d="M 195.953125 256.6875 C 193.734375 256.6875 193.734375 254.472656 193.734375 252.253906 C 193.734375 250.039062 193.734375 250.039062 195.953125 250.039062 L 204.820312 250.039062 C 207.035156 236.738281 211.46875 225.652344 220.335938 216.789062 C 229.203125 207.921875 244.71875 203.488281 266.886719 203.488281 C 284.617188 203.488281 302.351562 205.703125 315.652344 210.136719 L 404.320312 210.136719 C 417.617188 205.703125 435.351562 203.488281 453.085938 203.488281 C 475.253906 203.488281 490.769531 207.921875 499.636719 216.789062 C 508.503906 225.652344 512.933594 236.738281 515.152344 250.039062 L 524.019531 250.039062 C 526.234375 250.039062 526.234375 250.039062 526.234375 252.253906 C 526.234375 254.472656 526.234375 256.6875 524.019531 256.6875 L 515.152344 256.6875 C 515.152344 272.203125 508.503906 287.722656 497.417969 298.804688 C 488.550781 309.886719 475.253906 316.539062 455.300781 316.539062 C 437.570312 316.539062 417.617188 305.453125 404.320312 289.9375 C 393.234375 281.070312 384.367188 267.769531 379.933594 256.6875 C 377.71875 256.6875 377.71875 256.6875 377.71875 254.472656 C 375.503906 247.820312 373.285156 243.386719 371.070312 238.953125 C 366.636719 236.738281 364.417969 234.519531 359.984375 234.519531 C 355.550781 234.519531 353.335938 236.738281 348.902344 238.953125 C 346.683594 243.386719 344.46875 247.820312 342.253906 254.472656 C 342.253906 256.6875 342.253906 256.6875 340.035156 256.6875 C 335.601562 267.769531 326.734375 281.070312 315.652344 289.9375 C 302.351562 305.453125 282.402344 316.539062 264.667969 316.539062 C 244.71875 316.539062 231.417969 309.886719 222.550781 298.804688 C 211.46875 287.722656 204.820312 272.203125 204.820312 256.6875 Z M 331.167969 214.570312 C 340.035156 221.222656 344.46875 227.871094 344.46875 236.738281 C 344.46875 236.738281 344.46875 236.738281 344.46875 234.519531 C 348.902344 230.085938 353.335938 227.871094 359.984375 227.871094 C 366.636719 227.871094 371.070312 230.085938 375.503906 234.519531 C 375.503906 236.738281 375.503906 236.738281 375.503906 236.738281 C 375.503906 227.871094 379.933594 221.222656 388.800781 214.570312 Z M 453.085938 210.136719 C 433.136719 210.136719 413.183594 212.355469 399.886719 216.789062 C 388.800781 221.222656 382.152344 227.871094 382.152344 236.738281 C 382.152344 252.253906 393.234375 269.988281 406.535156 285.503906 C 422.050781 298.804688 439.785156 309.886719 455.300781 309.886719 C 473.035156 309.886719 484.117188 303.238281 492.984375 294.371094 C 504.070312 285.503906 508.503906 269.988281 508.503906 254.472656 C 508.503906 241.171875 504.070312 230.085938 495.203125 221.222656 C 486.335938 214.570312 473.035156 210.136719 453.085938 210.136719 Z M 320.085938 216.789062 C 306.785156 212.355469 286.835938 210.136719 266.886719 210.136719 C 246.933594 210.136719 233.636719 214.570312 224.769531 221.222656 C 215.902344 230.085938 211.46875 241.171875 211.46875 254.472656 C 211.46875 269.988281 215.902344 285.503906 226.984375 294.371094 C 235.851562 303.238281 246.933594 309.886719 264.667969 309.886719 C 280.183594 309.886719 297.917969 298.804688 313.433594 285.503906 C 326.734375 269.988281 337.820312 252.253906 337.820312 236.738281 C 337.820312 227.871094 331.167969 221.222656 320.085938 216.789062 Z M 320.085938 216.789062 "/><path style=" stroke:none;fill-rule:nonzero;fill:#5b5b5b;fill-opacity:0.5;" d="M 453.085938 210.136719 C 433.136719 210.136719 413.183594 212.355469 399.886719 216.789062 C 388.800781 221.222656 382.152344 227.871094 382.152344 236.738281 C 382.152344 252.253906 393.234375 269.988281 406.535156 285.503906 C 422.050781 298.804688 439.785156 309.886719 455.300781 309.886719 C 473.035156 309.886719 484.117188 303.238281 492.984375 294.371094 C 504.070312 285.503906 508.503906 269.988281 508.503906 254.472656 C 508.503906 241.171875 504.070312 230.085938 495.203125 221.222656 C 486.335938 214.570312 473.035156 210.136719 453.085938 210.136719 Z M 320.085938 216.789062 C 306.785156 212.355469 286.835938 210.136719 266.886719 210.136719 C 246.933594 210.136719 233.636719 214.570312 224.769531 221.222656 C 215.902344 230.085938 211.46875 241.171875 211.46875 254.472656 C 211.46875 269.988281 215.902344 285.503906 226.984375 294.371094 C 235.851562 303.238281 246.933594 309.886719 264.667969 309.886719 C 280.183594 309.886719 297.917969 298.804688 313.433594 285.503906 C 326.734375 269.988281 337.820312 252.253906 337.820312 236.738281 C 337.820312 227.871094 331.167969 221.222656 320.085938 216.789062 Z M 320.085938 216.789062 "/><path style=" stroke:none;fill-rule:nonzero;fill:#6f2912;fill-opacity:1;" d="M 346.683594 327.621094 C 335.601562 327.621094 331.167969 327.621094 320.085938 327.621094 C 306.785156 327.621094 293.484375 343.136719 286.835938 356.4375 C 280.183594 365.304688 277.96875 378.605469 264.667969 374.171875 C 233.636719 369.738281 220.335938 332.054688 220.335938 294.371094 L 220.335938 234.519531 C 220.335938 225.652344 213.683594 221.222656 207.035156 221.222656 C 207.035156 254.472656 207.035156 287.722656 207.035156 320.972656 C 207.035156 411.855469 275.753906 467.269531 359.984375 467.269531 C 444.21875 467.269531 512.933594 411.855469 512.933594 320.972656 C 512.933594 287.722656 512.933594 254.472656 512.933594 221.222656 C 506.285156 221.222656 499.636719 225.652344 499.636719 234.519531 L 499.636719 294.371094 C 499.636719 332.054688 486.335938 369.738281 455.300781 374.171875 C 442.003906 378.605469 439.785156 365.304688 433.136719 356.4375 C 426.484375 343.136719 413.183594 327.621094 399.886719 327.621094 C 388.800781 327.621094 384.367188 327.621094 373.285156 327.621094 C 366.636719 327.621094 359.984375 332.054688 359.984375 338.703125 C 359.984375 345.355469 366.636719 352.003906 373.285156 352.003906 C 384.367188 352.003906 391.019531 349.789062 404.320312 352.003906 C 419.835938 352.003906 426.484375 371.953125 424.269531 383.039062 C 424.269531 396.335938 417.617188 409.636719 410.96875 418.503906 C 404.320312 425.152344 395.453125 429.585938 386.585938 429.585938 C 375.503906 429.585938 375.503906 416.289062 359.984375 416.289062 C 344.46875 416.289062 344.46875 429.585938 333.386719 429.585938 C 324.519531 429.585938 315.652344 425.152344 309.003906 418.503906 C 302.351562 409.636719 295.703125 396.335938 295.703125 383.039062 C 293.484375 371.953125 300.136719 352.003906 315.652344 352.003906 C 328.953125 349.789062 335.601562 352.003906 346.683594 352.003906 C 353.335938 352.003906 359.984375 345.355469 359.984375 338.703125 C 359.984375 332.054688 353.335938 327.621094 346.683594 327.621094 Z M 346.683594 327.621094 "/></g></svg>