<svg xmlns="http://www.w3.org/2000/svg" xmlns:xlink="http://www.w3.org/1999/xlink" width="960" zoomAndPan="magnify" viewBox="0 0 720 719.999996" height="960" preserveAspectRatio="xMidYMid meet" version="1.2"><defs><filter x="0%" y="0%" width="100%" filterUnits="objectBoundingBox" id="c65d6fa426" height="100%"><feColorMatrix values="0 0 0 0 1 0 0 0 0 1 0 0 0 0 1 0 0 0 1 0" type="matrix" in="SourceGraphic"/></filter><clipPath id="58bf09f868"><path d="M 0.246094 0 L 489.414062 0 L 489.414062 489.171875 L 0.246094 489.171875 Z M 0.246094 0 "/></clipPath><clipPath id="0f0a1afbd0"><path d="M 244.832031 0 C 109.75 0 0.246094 109.503906 0.246094 244.585938 C 0.246094 379.667969 109.75 489.171875 244.832031 489.171875 C 379.910156 489.171875 489.414062 379.667969 489.414062 244.585938 C 489.414062 109.503906 379.910156 0 244.832031 0 Z M 244.832031 0 "/></clipPath><clipPath id="877f1f2cf9"><rect x="0" width="490" y="0" height="490"/></clipPath><clipPath id="b7b593a964"><path d="M 329 335 L 658 335 L 658 663.234375 L 329 663.234375 Z M 329 335 "/></clipPath><clipPath id="05d2325999"><path d="M 364 370 L 658 370 L 658 663.234375 L 364 663.234375 Z M 364 370 "/></clipPath></defs><g id="f5cfa6d749"><rect x="0" width="720" y="0" height="719.999996" style="fill:#ffffff;fill-opacity:1;stroke:none;"/><rect x="0" width="720" y="0" height="719.999996" style="fill:#ffffff;fill-opacity:1;stroke:none;"/><g mask="url(#6ea2106f07)" transform="matrix(1,0,0,1,102,72)"><g clip-path="url(#877f1f2cf9)"><g clip-rule="nonzero" clip-path="url(#58bf09f868)"><g clip-rule="nonzero" clip-path="url(#0f0a1afbd0)"><path style=" stroke:none;fill-rule:nonzero;fill:#853909;fill-opacity:1;" d="M 0.246094 0 L 489.414062 0 L 489.414062 489.171875 L 0.246094 489.171875 Z M 0.246094 0 "/></g></g></g><mask id="6ea2106f07"><g filter="url(#c65d6fa426)"><rect x="0" width="720" y="0" height="719.999996" style="fill:#000000;fill-opacity:0.2;stroke:none;"/></g></mask></g><path style=" stroke:none;fill-rule:nonzero;fill:#995222;fill-opacity:1;" d="M 544.167969 101.09375 L 630.953125 142.546875 C 639.347656 146.570312 639.347656 158.519531 630.953125 162.53125 L 544.167969 203.996094 L 544.167969 101.09375 "/><path style=" stroke:none;fill-rule:nonzero;fill:#8c3f0a;fill-opacity:1;" d="M 630.953125 142.546875 L 607.464844 131.335938 C 606.4375 132.761719 605.050781 133.996094 603.253906 134.851562 L 544.167969 163.082031 L 544.167969 203.996094 L 630.953125 162.53125 C 639.347656 158.519531 639.347656 146.570312 630.953125 142.546875 "/><path style=" stroke:none;fill-rule:nonzero;fill:#ffc91d;fill-opacity:1;" d="M 39.25 500.542969 C 54.074219 543.023438 113.085938 545.910156 131.988281 505.082031 L 166.328125 430.941406 C 167.617188 428.164062 170.894531 426.996094 173.6875 428.261719 C 252.183594 463.824219 347.800781 449.421875 412.339844 384.921875 C 451.519531 345.769531 472.226562 295.167969 474.511719 243.894531 C 474.921875 243.90625 475.320312 243.925781 475.734375 243.925781 C 529.105469 243.925781 571.953125 198.859375 568.21875 144.722656 C 565.105469 99.515625 528.792969 62.6875 483.597656 58.957031 C 453.011719 56.4375 425.226562 68.773438 406.648438 89.523438 L 50.9375 448.859375 C 37.488281 462.449219 32.953125 482.507812 39.25 500.542969 "/><path style=" stroke:none;fill-rule:nonzero;fill:#ffa91a;fill-opacity:1;" d="M 568.21875 144.722656 C 566.175781 114.976562 549.738281 88.851562 525.871094 73.414062 C 534.171875 86.195312 539.417969 101.09375 540.519531 117.042969 C 544.253906 171.179688 501.40625 216.246094 448.035156 216.246094 C 447.621094 216.246094 447.222656 216.226562 446.8125 216.214844 C 444.527344 267.488281 423.820312 318.089844 384.640625 357.242188 C 320.101562 421.742188 224.484375 436.152344 145.988281 400.578125 C 143.195312 399.316406 139.917969 400.484375 138.632812 403.261719 L 104.289062 477.402344 C 92.074219 503.773438 63.128906 511.882812 40.160156 502.878906 C 56.3125 543.089844 113.441406 545.144531 131.988281 505.082031 L 166.328125 430.941406 C 167.617188 428.164062 170.894531 426.996094 173.6875 428.261719 C 252.183594 463.832031 347.800781 449.421875 412.339844 384.921875 C 451.519531 345.769531 472.226562 295.167969 474.511719 243.894531 C 474.921875 243.90625 475.320312 243.925781 475.734375 243.925781 C 529.105469 243.925781 571.953125 198.859375 568.21875 144.722656 "/><path style=" stroke:none;fill-rule:nonzero;fill:#f79219;fill-opacity:1;" d="M 568.21875 144.722656 C 566.414062 118.449219 553.386719 95.027344 533.933594 79.273438 C 545.574219 93.632812 553.027344 111.484375 554.371094 130.882812 C 558.105469 185.019531 515.257812 230.085938 461.882812 230.085938 C 461.472656 230.085938 461.070312 230.066406 460.660156 230.054688 C 458.378906 281.328125 437.667969 331.929688 398.488281 371.082031 C 333.949219 435.582031 238.335938 449.992188 159.835938 414.421875 C 157.046875 413.15625 153.769531 414.324219 152.480469 417.101562 L 118.136719 491.242188 C 104.234375 521.269531 68.660156 527.617188 44.898438 512.003906 C 65.402344 543.15625 114.957031 541.855469 131.988281 505.082031 L 166.328125 430.941406 C 167.617188 428.164062 170.894531 426.996094 173.6875 428.261719 C 252.183594 463.832031 347.800781 449.421875 412.339844 384.921875 C 451.519531 345.769531 472.226562 295.167969 474.511719 243.894531 C 474.921875 243.90625 475.320312 243.925781 475.734375 243.925781 C 529.105469 243.925781 571.953125 198.859375 568.21875 144.722656 "/><path style=" stroke:none;fill-rule:nonzero;fill:#8c3f0a;fill-opacity:1;" d="M 157.242188 296.410156 C 220.417969 359.558594 321.171875 362.292969 387.605469 304.609375 C 392.496094 300.359375 392.875 292.898438 388.285156 288.3125 L 165.34375 65.519531 C 160.757812 60.933594 153.292969 61.3125 149.039062 66.199219 C 91.316406 132.589844 94.054688 233.277344 157.242188 296.410156 "/><path style=" stroke:none;fill-rule:nonzero;fill:#7c3108;fill-opacity:1;" d="M 242.046875 296.410156 C 281.753906 336.09375 344.433594 338.808594 387.292969 304.5625 C 392.410156 300.464844 392.753906 292.777344 388.113281 288.140625 L 242.046875 142.171875 C 199.425781 184.761719 199.425781 253.820312 242.046875 296.410156 "/><path style=" stroke:none;fill-rule:nonzero;fill:#8c3f0a;fill-opacity:1;" d="M 492.09375 131.335938 C 489.960938 131.335938 487.828125 130.515625 486.207031 128.890625 C 482.472656 125.171875 477.519531 123.117188 472.25 123.117188 C 466.980469 123.117188 462.023438 125.171875 458.289062 128.902344 C 455.046875 132.148438 449.777344 132.148438 446.53125 128.890625 C 443.273438 125.648438 443.273438 120.382812 446.53125 117.140625 C 453.402344 110.261719 462.542969 106.476562 472.25 106.476562 C 481.964844 106.476562 491.097656 110.261719 497.976562 117.140625 C 501.222656 120.382812 501.222656 125.648438 497.976562 128.902344 C 496.34375 130.515625 494.210938 131.335938 492.09375 131.335938 "/><path style=" stroke:none;fill-rule:nonzero;fill:#995222;fill-opacity:1;" d="M 154.503906 273.46875 C 152.730469 273.46875 151.128906 272.667969 150.066406 271.25 C 130.710938 245.375 119.933594 214.570312 118.886719 182.175781 C 118.796875 180.273438 118.777344 178.523438 118.777344 176.867188 C 118.777344 162.726562 120.660156 148.65625 124.371094 135.097656 L 124.425781 134.957031 C 126.414062 127.648438 128.992188 120.425781 132.042969 113.472656 C 133.199219 110.769531 136.585938 109.441406 139.324219 110.628906 C 142.125 111.875 143.390625 115.140625 142.179688 117.9375 C 139.324219 124.40625 136.941406 131.164062 135.058594 138.027344 C 131.621094 150.625 129.855469 163.6875 129.855469 176.867188 C 129.855469 178.414062 129.878906 180.046875 129.933594 181.796875 C 130.925781 211.910156 140.957031 240.554688 158.90625 264.613281 C 158.941406 264.613281 158.941406 264.613281 158.941406 264.644531 C 159.828125 265.800781 160.183594 267.273438 159.988281 268.730469 C 159.761719 270.203125 158.992188 271.5 157.804688 272.386719 C 156.863281 273.109375 155.695312 273.46875 154.503906 273.46875 Z M 168.992188 290.214844 C 167.519531 290.214844 166.136719 289.632812 165.085938 288.617188 C 165.085938 288.617188 165.085938 288.617188 165.085938 288.582031 C 162.921875 286.421875 162.921875 282.90625 165.085938 280.753906 C 167.164062 278.679688 170.820312 278.679688 172.898438 280.753906 C 175.0625 282.90625 175.0625 286.421875 172.898438 288.582031 C 171.871094 289.632812 170.453125 290.214844 168.992188 290.214844 "/><g clip-rule="nonzero" clip-path="url(#b7b593a964)"><path style=" stroke:none;fill-rule:nonzero;fill:#e6e7e8;fill-opacity:1;" d="M 355.089844 411.621094 C 338.777344 437.320312 329.425781 467.867188 329.699219 500.617188 C 330.421875 589.941406 404.117188 663.011719 493.507812 663.066406 C 585.976562 663.132812 660.597656 586.675781 657.449219 493.566406 C 654.5625 408.234375 585.371094 338.785156 499.980469 335.554688 C 465.085938 334.222656 432.507812 343.824219 405.382812 361.179688 C 402.914062 362.746094 399.886719 363.15625 397.136719 362.171875 L 351.707031 345.976562 C 344.304688 343.339844 337.164062 350.472656 339.804688 357.871094 L 356.066406 403.414062 C 357.039062 406.160156 356.648438 409.164062 355.089844 411.621094 "/></g><g clip-rule="nonzero" clip-path="url(#05d2325999)"><path style=" stroke:none;fill-rule:nonzero;fill:#d1d3d4;fill-opacity:1;" d="M 657.449219 493.566406 C 655.773438 443.820312 631.527344 399.5 594.695312 370.519531 C 615.601562 397.035156 628.539062 430.042969 629.753906 465.886719 C 632.902344 558.996094 558.277344 635.449219 465.8125 635.386719 C 427.875 635.363281 392.796875 622.164062 364.894531 600.179688 C 395.007812 638.347656 441.585938 663.035156 493.507812 663.066406 C 585.976562 663.132812 660.597656 586.675781 657.449219 493.566406 "/></g><path style=" stroke:none;fill-rule:nonzero;fill:#a54af4;fill-opacity:1;" d="M 576.800781 563.785156 L 410.433594 563.785156 C 399.90625 563.785156 391.371094 555.253906 391.371094 544.722656 L 391.371094 453.765625 C 391.371094 443.246094 399.90625 434.714844 410.433594 434.714844 L 576.800781 434.714844 C 587.328125 434.714844 595.863281 443.246094 595.863281 453.765625 L 595.863281 544.722656 C 595.863281 555.253906 587.328125 563.785156 576.800781 563.785156 "/><path style=" stroke:none;fill-rule:nonzero;fill:#893add;fill-opacity:1;" d="M 576.800781 434.714844 L 573.769531 434.714844 L 573.769531 522.652344 C 573.769531 533.175781 565.234375 541.707031 554.707031 541.707031 L 391.371094 541.707031 L 391.371094 544.722656 C 391.371094 555.253906 399.90625 563.785156 410.433594 563.785156 L 576.800781 563.785156 C 587.328125 563.785156 595.863281 555.253906 595.863281 544.722656 L 595.863281 453.765625 C 595.863281 443.246094 587.328125 434.714844 576.800781 434.714844 "/><path style=" stroke:none;fill-rule:nonzero;fill:#ffa91a;fill-opacity:1;" d="M 576.800781 434.714844 L 410.433594 434.714844 C 405.359375 434.714844 400.785156 436.726562 397.363281 439.960938 L 479.109375 504.457031 C 487.613281 511.160156 499.621094 511.160156 508.125 504.457031 L 589.871094 439.960938 C 586.453125 436.726562 581.875 434.714844 576.800781 434.714844 "/><path style=" stroke:none;fill-rule:nonzero;fill:#f79219;fill-opacity:1;" d="M 568.535156 434.714844 L 508.125 482.378906 C 499.621094 489.09375 487.613281 489.09375 479.109375 482.378906 L 418.703125 434.714844 L 410.433594 434.714844 C 405.359375 434.714844 400.785156 436.726562 397.363281 439.960938 L 479.109375 504.457031 C 487.613281 511.160156 499.621094 511.160156 508.125 504.457031 L 589.871094 439.960938 C 586.453125 436.726562 581.875 434.714844 576.800781 434.714844 L 568.535156 434.714844 "/></g></svg>